<svg width="17" height="17" viewBox="0 0 17 17" fill="none" xmlns="http://www.w3.org/2000/svg">
<path d="M8.72754 11.0305C7.62297 11.0305 6.72754 10.135 6.72754 9.03046C6.72754 7.92589 7.62297 7.03046 8.72754 7.03046C9.83211 7.03046 10.7275 7.92589 10.7275 9.03046C10.7275 10.135 9.83211 11.0305 8.72754 11.0305ZM14.7275 7.1638V10.8971C14.7275 11.6439 14.7277 12.0172 14.5824 12.3024C14.4545 12.5533 14.2503 12.7573 13.9994 12.8851C13.7142 13.0304 13.3411 13.0305 12.5943 13.0305H4.861C4.11427 13.0305 3.74062 13.0304 3.4554 12.8851C3.20452 12.7573 3.00069 12.5533 2.87286 12.3024C2.72754 12.0172 2.72754 11.6439 2.72754 10.8971V7.1638C2.72754 6.41706 2.72754 6.0437 2.87286 5.75848C3.00069 5.5076 3.20452 5.30361 3.4554 5.17578C3.74062 5.03046 4.11427 5.03046 4.861 5.03046H12.5943C13.3411 5.03046 13.7142 5.03046 13.9994 5.17578C14.2503 5.30361 14.4545 5.5076 14.5824 5.75848C14.7277 6.0437 14.7275 6.41706 14.7275 7.1638ZM10.3602 5.03046H7.09473C6.99727 5.03046 6.94876 5.03045 6.91178 5.02631C6.52006 4.98245 6.25172 4.61015 6.33398 4.22466C6.34175 4.18827 6.3572 4.14202 6.38802 4.04956C6.42224 3.9469 6.43935 3.89558 6.45825 3.85028C6.65177 3.38654 7.08936 3.07101 7.5905 3.03406C7.63944 3.03046 7.69355 3.03046 7.80176 3.03046H9.65326C9.76147 3.03046 9.81564 3.03046 9.86458 3.03406C10.3657 3.07101 10.8036 3.38654 10.9971 3.85028C11.016 3.89558 11.0332 3.94692 11.0674 4.04958C11.0982 4.14204 11.1136 4.18827 11.1214 4.22466C11.2036 4.61015 10.9352 4.98245 10.5435 5.02631C10.5065 5.03045 10.4576 5.03046 10.3602 5.03046Z" stroke="#7165E3" stroke-width="1.16667" stroke-linecap="round" stroke-linejoin="round"/>
</svg>
