<svg width="37" height="47" viewBox="0 0 37 47" fill="none" xmlns="http://www.w3.org/2000/svg">
<path fill-rule="evenodd" clip-rule="evenodd" d="M30.5828 6.23141C30.5137 6.15872 30.4307 6.10075 30.3386 6.06098C30.2466 6.02122 30.1474 6.00048 30.0472 6.00001H6.72777C6.62744 5.9995 6.5281 6.01985 6.43605 6.05976C6.344 6.09967 6.26125 6.15828 6.19304 6.23186C6.12484 6.30544 6.07267 6.39239 6.03985 6.4872C6.00702 6.58201 5.99426 6.68261 6.00237 6.78261L8.17857 39.6154C8.19017 39.8007 8.27214 39.9746 8.40771 40.1015C8.54328 40.2283 8.7222 40.2986 8.90787 40.2979H27.819C28.2025 40.2979 28.5249 39.9989 28.5483 39.6154L30.7778 6.78521C30.7882 6.58213 30.7181 6.38313 30.5828 6.23141ZM29.2646 7.46641L28.6705 16.2063C27.3679 16.1179 26.6425 15.633 25.8547 15.0532C24.9148 14.3629 23.8462 13.5855 21.7948 13.5855C19.7486 13.5855 18.6813 14.3629 17.7427 15.0532C16.8743 15.6876 16.1255 16.2414 14.5577 16.2414C12.9847 16.2414 12.2359 15.6876 11.3701 15.0532C10.5316 14.4409 9.56307 13.7857 7.91987 13.6414L7.51167 7.46641H29.2646ZM27.1352 38.8328H9.59037L8.01867 15.1104C9.11587 15.2521 9.78277 15.7019 10.5043 16.2297C11.4416 16.9226 12.5063 17.7 14.5564 17.7C16.6052 17.7 17.6699 16.9226 18.6085 16.2297C19.4769 15.5979 20.2231 15.0441 21.7948 15.0441C23.3717 15.0441 24.1231 15.5979 24.9889 16.2297C25.8495 16.8615 26.8505 17.5375 28.5717 17.6545L27.1352 38.8328ZM10.2638 19.8255C10.0706 19.8382 9.89022 19.9263 9.76135 20.0707C9.63249 20.2151 9.56549 20.4044 9.57477 20.5977L10.3171 34.6897C10.3261 34.8771 10.4071 35.0537 10.5433 35.1828C10.6794 35.3119 10.8601 35.3835 11.0477 35.3826C11.0607 35.3826 11.0737 35.3826 11.0867 35.38C11.2798 35.3693 11.4609 35.2826 11.5904 35.1389C11.72 34.9953 11.7875 34.8062 11.7783 34.613L11.0373 20.5184C11.0126 20.118 10.6954 19.7878 10.2638 19.8255Z" fill="#7EE4F0"/>
</svg>
