<svg width="289" height="214" viewBox="0 0 289 214" fill="none" xmlns="http://www.w3.org/2000/svg">
<g clip-path="url(#clip0_88_2455)">
<path d="M59.1981 208.789L63.66 208.788L65.7824 191.579L59.1973 191.58L59.1981 208.789Z" fill="#9E616A"/>
<path d="M58.0605 207.332L59.3164 207.332L64.2192 205.338L66.847 207.332C68.3321 207.332 69.7566 207.922 70.8067 208.972C71.8568 210.022 72.4468 211.446 72.4469 212.931V213.113L58.0608 213.114L58.0605 207.332Z" fill="#2F2E41"/>
<path d="M79.9261 208.789L84.388 208.788L86.5104 191.579L79.9253 191.58L79.9261 208.789Z" fill="#9E616A"/>
<path d="M78.7881 207.332L80.0439 207.332L84.9468 205.338L87.5746 207.332C89.0596 207.332 90.4842 207.922 91.5342 208.972C92.5843 210.022 93.1743 211.446 93.1744 212.931V213.113L78.7883 213.114L78.7881 207.332Z" fill="#2F2E41"/>
<path d="M83.4924 114.612L48.438 115.527L49.0476 132.597C49.0476 132.597 48.438 137.169 49.6573 138.388C50.8766 139.608 51.4862 139.608 50.8765 141.741C50.2669 143.875 53.4879 147.36 53.0967 147.751C52.7055 148.143 51.791 150.276 51.791 150.276L54.8392 167.651C54.8392 167.651 56.973 197.828 57.5826 198.438C58.1923 199.048 58.8019 198.438 58.1922 199.962C57.5826 201.486 56.973 200.877 57.5826 201.486C58.1226 202.068 58.6314 202.679 59.1067 203.315H66.4764C66.4764 203.315 67.032 200.267 67.032 199.962C67.032 199.657 67.6417 197.828 67.6417 197.523C67.6417 197.219 67.1028 196.68 67.1028 196.68C66.9166 196.06 66.7909 195.424 66.7272 194.78C66.7272 194.17 64.8983 170.699 64.8983 170.699L68.5562 140.217L77.396 170.09C77.396 170.09 77.396 196.304 78.0056 196.914C78.6152 197.523 78.6152 197.219 78.3104 198.438C78.0056 199.657 76.7863 199.352 77.7008 200.267C78.6152 201.181 78.9201 199.657 78.6152 201.181L78.3104 202.705L87.455 202.836C87.455 202.836 88.6743 200.267 88.0647 199.352C87.455 198.438 87.4916 198.688 88.2354 197.191C88.9791 195.695 89.284 195.39 88.9791 195.085C88.6743 194.78 88.6743 193.159 88.6743 193.159L87.1502 163.993C87.1502 163.993 86.8454 133.206 86.8454 132.292C86.8224 131.821 86.9091 131.352 87.0986 130.921V129.679L85.9309 125.281L83.4924 114.612Z" fill="#2F2E41"/>
<path d="M123.163 48.1301C122.995 48.5984 122.726 49.024 122.375 49.377C122.024 49.73 121.6 50.0018 121.133 50.1733C120.666 50.3448 120.167 50.4117 119.671 50.3695C119.175 50.3272 118.695 50.1767 118.264 49.9287L103.047 62.6765L102.22 56.4454L117.103 45.0523C117.568 44.3553 118.272 43.8529 119.083 43.6404C119.893 43.428 120.753 43.5202 121.5 43.8995C122.247 44.2789 122.829 44.9191 123.136 45.6988C123.442 46.4786 123.452 47.3436 123.163 48.1301Z" fill="#9E616A"/>
<path d="M56.0676 53.3914C61.2864 53.3914 65.517 49.1607 65.517 43.9419C65.517 38.7231 61.2864 34.4925 56.0676 34.4925C50.8488 34.4925 46.6182 38.7231 46.6182 43.9419C46.6182 49.1607 50.8488 53.3914 56.0676 53.3914Z" fill="#9E616A"/>
<path d="M63.728 34.5377C62.8483 32.4409 59.0782 31.196 53.1124 31.3835C47.1466 31.571 46.1019 38.6853 46.1019 38.6853C42.8159 41.748 48.121 51.3103 49.0414 49.9919C49.9618 48.6736 51.5071 49.9197 51.5071 49.9197L50.0345 41.6364C51.5896 42.2347 53.2622 42.6364 54.7249 41.9394L52.3013 40.6434C54.31 40.8934 56.3187 41.1433 58.3273 41.3933L55.8422 39.4814C55.9024 39.4615 55.9627 39.4409 56.023 39.4206C57.0196 39.8503 58.0869 40.0926 59.1714 40.1354C60.4383 40.126 61.7848 39.5323 62.3157 38.3818C62.4569 38.0659 62.5333 37.7249 62.5406 37.379C64.2875 37.9462 65.2048 39.9927 65.2048 39.9927C64.8731 38.1346 64.379 36.3093 63.728 34.5377Z" fill="#2F2E41"/>
<path d="M63.6314 53.814C61.5212 53.814 60.1622 54.1053 56.8787 54.6581C50.8182 55.6795 54.4477 61.4381 54.4477 61.4381C54.4477 61.4381 54.7221 61.2988 53.9793 61.4381C53.2365 61.5773 50.7042 63.7677 50.7042 63.7677L46.1757 67.7898C39.3512 73.1455 40.879 81.502 40.879 81.502L50.8308 91.5171L46.4711 111.611C46.4711 111.611 48.3239 114.594 47.3658 115.932C46.4078 117.27 55.8067 116.886 55.8067 116.886C62.2935 119.777 85.1472 117.334 85.1472 117.334C84.8306 116.506 81.7708 110.095 81.7708 110.095C83.1003 107.8 81.8341 104.482 81.8341 104.482C81.8341 104.482 80.5131 88.7907 79.669 86.6214C78.8249 84.4521 81.8299 72.6982 83.8051 72.8248C85.7802 72.9514 98.5386 66.4435 98.5386 66.4435C98.5386 66.4435 98.2179 65.9328 102.43 64.2109C104.849 63.2603 107.067 61.8613 108.967 60.0875L110.698 56.631C109.866 56.9517 107.06 51.6593 107.06 51.6593L105.836 52.1259L105.127 51.921C105.127 51.921 99.5937 53.4952 98.4626 54.6432C97.3315 55.7911 96.9517 55.4704 95.9304 55.7278C94.909 55.9853 94.7824 56.7027 94.4616 56.6225C94.1409 56.5424 93.5711 57.5131 93.1238 57.3864C92.6764 57.2598 91.7184 57.7705 91.0811 57.8971C90.4438 58.0237 85.9153 59.9398 85.9153 59.9398C83.1129 58.5217 75.5161 59.0957 75.5161 59.0957C75.5161 59.0957 73.0303 57.6312 72.3255 59.0957C72.1358 59.5118 71.8313 59.8651 71.4478 60.114C71.0643 60.363 70.6176 60.4973 70.1604 60.5011L67.1301 59.2054C66.954 59.8483 63.6487 53.1477 63.6314 53.814Z" fill="#6C63FF"/>
<path d="M49.1639 132.455C48.8329 132.083 48.5875 131.644 48.4448 131.167C48.3021 130.69 48.2658 130.188 48.3382 129.696C48.4106 129.203 48.5901 128.733 48.864 128.317C49.1379 127.902 49.4996 127.552 49.9236 127.291L45.6304 110.414L51.5 112.663L54.7621 128.6C55.1526 129.341 55.2576 130.2 55.0573 131.014C54.8569 131.827 54.3651 132.539 53.6751 133.014C52.985 133.489 52.1447 133.695 51.3132 133.592C50.4818 133.489 49.717 133.084 49.1639 132.455Z" fill="#9E616A"/>
<path d="M41.2632 78.2925L40.7331 85.0319C40.7331 85.0319 40.074 92.436 40.2466 93.8051C40.4191 95.1743 40.7405 103.535 40.7405 103.535L46.3278 114.588L52.6584 112.9L52.2796 107.715L52.6584 112.478L53.5025 108.258L51.3923 101.083L52.6584 98.5506L52.0199 90.0502L41.2632 78.2925Z" fill="#6C63FF"/>
<path d="M225.148 62.5416L227.238 62.9895C227.252 62.1153 227.361 61.2451 227.563 60.3945C227.753 61.4362 228.154 62.4282 228.74 63.31L240.727 65.8699L252.235 53.7248C252.253 47.6522 248.881 43.0374 242.835 43.0374C242.47 43.0374 242.093 43.0549 241.711 43.0901C238.444 42.5433 235.093 43.2854 232.362 45.1601C229.631 47.0348 227.735 49.8958 227.071 53.1408C222.786 57.3604 224.34 59.8412 225.148 62.5416Z" fill="#2F2E41"/>
<path d="M213.255 204.574H208.907L206.838 187.803H213.256L213.255 204.574Z" fill="#FFB6B6"/>
<path d="M215.2 212.831H212.115L211.564 209.918L210.154 212.831H201.97C201.578 212.831 201.196 212.705 200.88 212.473C200.564 212.24 200.331 211.913 200.214 211.538C200.097 211.164 200.104 210.762 200.231 210.391C200.359 210.02 200.602 209.7 200.925 209.477L207.46 204.964V202.019L214.333 202.43L215.2 212.831Z" fill="#2F2E41"/>
<path d="M264.195 199.841L260.413 201.987L250.337 188.421L255.919 185.254L264.195 199.841Z" fill="#FFB6B6"/>
<path d="M269.961 206.062L267.278 207.585L265.361 205.323L265.572 208.553L258.455 212.591C258.114 212.785 257.72 212.864 257.33 212.818C256.941 212.772 256.576 212.602 256.29 212.334C256.003 212.066 255.81 211.713 255.739 211.328C255.667 210.942 255.72 210.544 255.891 210.191L259.347 203.04L257.894 200.479L264.075 197.444L269.961 206.062Z" fill="#2F2E41"/>
<path d="M203.183 65.4799C203.74 65.5605 204.273 65.7623 204.743 66.071C205.214 66.3798 205.611 66.788 205.907 67.2669C206.203 67.7458 206.391 68.2838 206.456 68.8429C206.522 69.4021 206.464 69.9688 206.286 70.5031L212.94 76.2621L210.427 81.159L201.145 72.8943C200.267 72.5371 199.55 71.8703 199.131 71.0202C198.712 70.1701 198.619 69.1958 198.87 68.2818C199.122 67.3679 199.699 66.5779 200.494 66.0615C201.289 65.5451 202.246 65.3381 203.183 65.4799Z" fill="#FFB6B6"/>
<path d="M208.934 83.4037L204.484 76.3239L209.432 71.2651L212.946 75.5412L217.299 77.4834L223.274 81.1235C224.462 79.7253 233.616 69.209 237.701 72.237C238.191 72.5713 238.603 73.0079 238.909 73.5166C239.214 74.0253 239.406 74.5942 239.471 75.1841C239.76 77.9994 237.237 80.863 237.141 80.969L231.745 88.2478C231.578 88.705 229.792 93.4185 227.006 94.6864C226.61 94.8758 226.18 94.9811 225.741 94.9954C225.303 95.0097 224.866 94.9328 224.459 94.7696C217.077 91.8916 212.102 88.6452 209.883 85.2837C209.49 84.6986 209.171 84.0672 208.934 83.4037Z" fill="#2F2E41"/>
<path d="M224.401 98.1804C224.401 98.1804 211.616 118.545 213.932 120.861C216.249 123.177 219.853 123.786 219.853 123.786L227.83 113.449L224.401 98.1804Z" fill="#2F2E41"/>
<path d="M235.705 70.3676L229.679 74.4436C226.879 76.3382 224.772 79.0944 223.679 82.2942C222.587 85.4941 222.567 88.963 223.624 92.1749L225.32 97.331L235.705 70.3676Z" fill="#2F2E41"/>
<path d="M241.36 125.957L242.165 128.763L244.914 162.598L258.647 188.193L252.093 192.874L233.365 168.529L225.958 144.355L214.326 197.868L205.586 197.244L211.656 123.048L223.174 102.164L241.36 125.957Z" fill="#2F2E41"/>
<path d="M237.73 71.3925L229.343 78.2463C227.503 79.7505 226.177 81.7915 225.552 84.0847C225.268 85.1261 225.133 86.2024 225.151 87.2816L225.401 102.164L217.712 122.714C217.712 122.714 238.558 130.589 241.337 123.641C244.117 116.692 237.73 71.3925 237.73 71.3925Z" fill="#6C63FF"/>
<path d="M226.05 116.692L224.66 111.133L225 97.3015C225.027 96.4978 229.311 83.9893 234.709 70.7027L239.354 66.0583L241.858 64.4288L247.37 69.5165C247.37 69.5165 246.669 83.4425 246.896 97.699C246.959 101.643 246.265 106.25 245.969 109.743L248.502 120.996V127.259L248.337 127.293C248.173 127.326 245.635 127.248 235.221 127.248C226.592 127.248 232.337 121.13 226.05 116.692Z" fill="#2F2E41"/>
<path opacity="0.2" d="M244.034 81.9359L245.3 89.8378L236.729 93.3733L244.034 81.9359Z" fill="black"/>
<path d="M236.4 62.9465C241.035 62.9465 244.791 59.1897 244.791 54.5555C244.791 49.9212 241.035 46.1644 236.4 46.1644C231.766 46.1644 228.009 49.9212 228.009 54.5555C228.009 59.1897 231.766 62.9465 236.4 62.9465Z" fill="#FFB6B6"/>
<path opacity="0.2" d="M242.46 97.1306C240.227 99.7165 237.198 101.487 233.849 102.164C230.5 102.841 227.021 102.386 223.959 100.87L222.132 99.9665L242.46 97.1306Z" fill="black"/>
<path d="M214.262 95.1991C214.636 94.7785 215.098 94.4452 215.615 94.2225C216.132 93.9999 216.692 93.8933 217.254 93.9103C217.817 93.9273 218.369 94.0674 218.872 94.3209C219.374 94.5744 219.815 94.935 220.164 95.3773L228.636 92.9988L231.337 97.7949L219.325 100.986C218.544 101.521 217.592 101.752 216.652 101.633C215.712 101.514 214.847 101.055 214.223 100.342C213.599 99.6283 213.258 98.7108 213.265 97.763C213.272 96.8152 213.627 95.903 214.262 95.1991Z" fill="#FFB6B6"/>
<path d="M238.387 100.277L230.027 100.089L228.533 93.1724L234.038 92.5965L238.057 90.0342L244.387 87.0549C243.875 85.2931 240.144 71.859 244.922 70.1192C245.471 69.8943 246.063 69.7909 246.656 69.8162C247.248 69.8414 247.829 69.9948 248.357 70.2656C250.865 71.5762 251.864 75.2598 251.9 75.3982L255 83.9119C255.289 84.3037 258.239 88.3911 257.761 91.4146C257.701 91.8492 257.552 92.2665 257.322 92.6403C257.093 93.014 256.788 93.336 256.427 93.5858C249.957 98.1601 244.507 100.522 240.479 100.521C239.774 100.527 239.072 100.445 238.387 100.277Z" fill="#2F2E41"/>
<path d="M226.338 49.0353C227.01 49.9091 229.324 50.6819 232.073 51.3054C232.068 51.2483 232.068 51.1912 232.068 51.1341C232.082 50.2599 232.191 49.3898 232.393 48.5391C232.583 49.5808 232.984 50.5729 233.57 51.4547C233.614 51.5206 233.658 51.5864 233.706 51.6523C236.064 52.1177 238.558 52.4778 240.512 52.7192C239.168 57.558 234.018 61.5273 234.576 64.4692L249.667 67.5516C249.574 66.3291 249.672 65.0996 249.957 63.9072C250.246 65.4809 251.009 66.9288 252.144 68.0566L253.426 68.32L253.808 66.4363C257.118 58.4845 252.504 50.3438 244.942 46.1329C243.594 44.1121 241.501 42.707 239.12 42.2251L237.237 41.8387C236.048 41.5956 234.824 41.5889 233.633 41.819C232.443 42.0491 231.309 42.5115 230.297 43.1798C229.285 43.8481 228.414 44.7091 227.735 45.7138C227.056 46.7185 226.581 47.8472 226.338 49.0353Z" fill="#2F2E41"/>
<path d="M156.739 28.7217C157.783 33.3092 158.279 38.5101 155.494 42.6154C154.31 44.3765 152.573 45.6926 150.557 46.3554C148.517 46.9604 146.365 47.0926 144.266 46.7418C139.516 46.0837 135.294 43.6094 130.622 42.6487C128.56 42.2248 126.372 42.0847 124.388 42.9005C122.901 43.5119 121.334 44.7409 121.327 46.4941C121.32 48.2945 122.884 49.4894 124.439 50.0429C126.514 50.7816 128.67 50.4957 130.823 50.4026C133.141 50.3023 135.504 50.5119 137.43 51.9316C139.086 53.2243 140.356 54.9464 141.102 56.9105C142.07 59.2597 142.463 61.7853 143.082 64.2362C143.635 66.4398 144.418 68.5794 145.417 70.6199C147.377 74.6194 150.126 78.1816 153.497 81.0928C155.159 82.5236 157.179 83.9812 159.45 84.1124C161.201 84.2135 163.33 83.4776 164.005 81.7038C164.256 80.9379 164.231 80.1085 163.935 79.3588C163.64 78.6091 163.092 77.9862 162.386 77.5976C160.885 76.8403 159.25 77.9207 158.766 79.4035C158.638 79.7454 158.594 80.1124 158.636 80.4747C158.678 80.837 158.805 81.1842 159.006 81.4881C159.462 82.1667 158.365 82.8011 157.913 82.1271C156.864 80.562 157.412 78.4572 158.698 77.2036C159.325 76.5643 160.163 76.175 161.056 76.1085C161.949 76.0419 162.836 76.3026 163.551 76.8419C164.293 77.4074 164.855 78.1775 165.166 79.0577C165.478 79.9378 165.525 80.8897 165.303 81.7965C164.764 83.7449 162.849 84.9842 160.937 85.2913C158.576 85.6704 156.304 84.7425 154.398 83.402C152.486 82.0218 150.747 80.4158 149.22 78.619C146.115 75.0479 143.781 70.8741 142.363 66.359C140.97 61.8933 140.868 55.9939 136.727 52.978C134.597 51.4261 131.986 51.5982 129.487 51.7407C127.282 51.8664 125.131 51.8435 123.107 50.8451C121.437 50.0207 120.089 48.499 120.061 46.5604C120.033 44.6033 121.422 43.0296 123.06 42.1379C127.385 39.7824 132.578 41.6821 136.827 43.2558C141.1 44.8384 145.979 46.6958 150.52 45.0304C152.616 44.216 154.303 42.6037 155.212 40.5471C156.312 38.2152 156.468 35.5693 156.214 33.0386C156.064 31.6987 155.832 30.3694 155.518 29.0583C155.337 28.265 156.558 27.9262 156.739 28.7217Z" fill="#3F3D56"/>
<path d="M148.978 15.8527C150.23 20.033 152.118 23.9959 154.574 27.6024C155.182 28.4887 155.821 29.3525 156.49 30.1938C157.011 29.2479 157.641 28.3667 158.369 27.5687C160.922 24.7621 164.345 22.9262 167.666 21.0861C170.988 19.246 174.36 17.2708 176.706 14.2869C177.759 12.9438 178.513 11.3912 178.918 9.7331C179.45 7.4836 179.247 5.13704 177.935 3.25895C176.027 0.528327 172.224 -0.433935 168.991 0.355287C165.754 1.14451 163.045 3.394 160.943 5.9769C161.631 2.80314 158.284 -0.260898 155.047 0.0176505C151.81 0.30042 149.214 3.12811 148.353 6.25967C147.488 9.38701 148.05 12.738 148.978 15.8527Z" fill="#6C63FF"/>
<g opacity="0.2">
<path d="M154.574 27.6024C155.182 28.4887 155.821 29.3525 156.49 30.1938C157.011 29.2479 157.641 28.3667 158.368 27.5687C160.922 24.7621 164.345 22.9262 167.666 21.0861C170.988 19.246 174.36 17.2708 176.706 14.2869C177.759 12.9438 178.513 11.3912 178.918 9.73309C171.451 10.7682 164.59 14.408 159.546 20.0099C157.526 22.2841 155.851 24.8421 154.574 27.6024Z" fill="black"/>
</g>
</g>
<defs>
<clipPath id="clip0_88_2455">
<rect width="289" height="213.762" fill="white"/>
</clipPath>
</defs>
</svg>
