<svg width="20" height="20" viewBox="0 0 20 20" fill="none" xmlns="http://www.w3.org/2000/svg">
<path d="M18.0873 6.19375L15.5747 8.70626C15.0685 9.21251 14.3123 9.3625 13.6373 9.18127L17.356 5.46251C17.7247 5.1 17.7247 4.50624 17.356 4.13751C16.9872 3.76874 16.3997 3.76874 16.031 4.13751L12.2997 7.86874C12.2497 7.6875 12.2122 7.50627 12.2122 7.31252C12.2122 6.78751 12.4185 6.28752 12.7873 5.91875L15.2997 3.40627C15.6685 3.04376 15.6685 2.45 15.2997 2.08124C14.931 1.7125 14.3372 1.7125 13.9747 2.08124L11.4623 4.59375C10.7372 5.31877 10.3372 6.28126 10.3372 7.31252C10.3372 8.01874 10.531 8.69375 10.8872 9.28125L9.43101 10.7375L8.27473 9.58749C8.63099 8.99377 8.82473 8.31876 8.82473 7.61251C8.82473 6.5875 8.42473 5.61876 7.69348 4.89374C6.76224 3.96249 4.74972 2.94999 3.03722 2.94999C2.26223 2.94999 1.55597 3.15625 1.03722 3.67501C0.280994 4.43749 0.105975 5.71252 0.56225 7.26876C0.899756 8.43752 1.56851 9.64376 2.256 10.3312C2.98102 11.0563 3.94976 11.4625 4.97477 11.4625C5.68102 11.4625 6.356 11.2687 6.94976 10.9125L8.09977 12.0625L3.57474 16.5938C3.21227 16.9563 3.21227 17.55 3.57474 17.9188C3.75602 18.1 3.99977 18.1938 4.23728 18.1938C4.481 18.1938 4.71851 18.1 4.89978 17.9188L9.43103 13.3938L13.8748 17.8375C14.0623 18.025 14.2998 18.1125 14.5373 18.1125C14.781 18.1125 15.0185 18.025 15.1998 17.8375C15.5685 17.475 15.5685 16.8813 15.1998 16.5125L10.756 12.0688L12.2122 10.6062C12.7997 10.9625 13.4748 11.1562 14.181 11.1562C15.2123 11.1562 16.1748 10.7562 16.8997 10.0313L19.4123 7.51875C19.781 7.15627 19.781 6.56252 19.4123 6.19375C19.0435 5.82502 18.456 5.82502 18.0873 6.19375Z" fill="#7165E3"/>
</svg>
