<svg width="30" height="37" viewBox="0 0 30 37" fill="none" xmlns="http://www.w3.org/2000/svg">
<path fill-rule="evenodd" clip-rule="evenodd" d="M9.89741 21.2308C10.3582 19.9009 11.2273 17.7012 9.99971 13.4563C8.77215 9.21058 6.98237 7.55174 4.52726 7.55174C4.52726 7.55174 0.310195 7.31933 0.02622 14.0185C-0.288034 21.4247 2.31029 23.2423 3.12539 27.479L9.28363 25.7195C9.06431 23.8889 9.57743 22.1572 9.89741 21.2308Z" fill="#7165E3"/>
<path fill-rule="evenodd" clip-rule="evenodd" d="M10.0356 28.0576L3.38965 29.957C3.73418 34.3124 5.85376 37.8109 9.48815 36.828C13.2731 35.8051 11.5439 30.6624 10.061 28.105L10.0356 28.0576Z" fill="#7165E3"/>
<path fill-rule="evenodd" clip-rule="evenodd" d="M19.5637 14.6757C19.1038 13.3458 18.2338 11.146 19.4614 6.90114C20.689 2.65544 22.4795 0.995788 24.9347 0.995788C24.9347 0.995788 29.1517 0.76419 29.4357 7.46336C29.75 14.8688 27.1516 16.6872 26.3365 20.9231L20.1783 19.1636C20.3976 17.3337 19.8853 15.602 19.5637 14.6757Z" fill="#7165E3"/>
<path fill-rule="evenodd" clip-rule="evenodd" d="M19.4262 21.5025L26.0722 23.4011C25.7276 27.7565 23.6081 31.2558 19.9729 30.273C16.1879 29.25 17.9179 24.1074 19.4016 21.55L19.4262 21.5025Z" fill="#7165E3"/>
</svg>
