<svg width="20" height="20" viewBox="0 0 20 20" fill="none" xmlns="http://www.w3.org/2000/svg">
<path d="M15.7217 5.78438C15.0184 4.95205 14.1422 4.28297 13.1541 3.8237C12.1659 3.36443 11.0895 3.126 9.99987 3.125C9.14787 3.1232 8.30202 3.26911 7.49987 3.55625C5.99159 4.0886 4.69301 5.08919 3.79374 6.41192C2.89448 7.73464 2.44163 9.31022 2.50132 10.9086C2.56102 12.5069 3.13013 14.0443 4.12555 15.2963C5.12098 16.5482 6.49058 17.4492 8.03436 17.8675C9.57814 18.2859 11.2152 18.1998 12.7066 17.6217C14.1979 17.0437 15.4654 16.004 16.324 14.6545C17.1826 13.305 17.5872 11.7164 17.4789 10.1206C17.3705 8.52479 16.7548 7.00544 15.7217 5.78438ZM9.99987 16.875C8.76373 16.875 7.55536 16.5084 6.52755 15.8217C5.49974 15.1349 4.69867 14.1588 4.22562 13.0168C3.75257 11.8747 3.6288 10.6181 3.86996 9.40569C4.11112 8.19331 4.70637 7.07966 5.58045 6.20558C6.45453 5.33151 7.56817 4.73625 8.78055 4.49509C9.99293 4.25394 11.2496 4.37771 12.3916 4.85075C13.5337 5.3238 14.5098 6.12488 15.1966 7.15269C15.8833 8.18049 16.2499 9.38887 16.2499 10.625C16.2499 12.2826 15.5914 13.8723 14.4193 15.0444C13.2472 16.2165 11.6575 16.875 9.99987 16.875Z" fill="#1E87FD"/>
<path d="M16.6906 4.81562L15.7219 5.78438C15.4537 5.46615 15.1588 5.17134 14.8406 4.90312L15.8094 3.93438C15.9289 3.83198 16.0827 3.77848 16.24 3.78456C16.3973 3.79063 16.5465 3.85584 16.6579 3.96715C16.7692 4.07846 16.8344 4.22767 16.8404 4.38497C16.8465 4.54226 16.793 4.69606 16.6906 4.81562ZM11.875 1.875H8.125C7.95924 1.875 7.80027 1.94085 7.68306 2.05806C7.56585 2.17527 7.5 2.33424 7.5 2.5V3.55625C9.11708 2.98129 10.8829 2.98129 12.5 3.55625V2.5C12.5 2.33424 12.4342 2.17527 12.3169 2.05806C12.1997 1.94085 12.0408 1.875 11.875 1.875ZM15 10.625C15 11.6139 14.7068 12.5806 14.1574 13.4029C13.6079 14.2251 12.8271 14.866 11.9134 15.2444C10.9998 15.6228 9.99446 15.7219 9.02455 15.5289C8.05465 15.336 7.16373 14.8598 6.46447 14.1605C5.76521 13.4613 5.289 12.5704 5.09608 11.6005C4.90315 10.6305 5.00217 9.62521 5.3806 8.71158C5.75904 7.79795 6.39991 7.01706 7.22215 6.46765C8.0444 5.91824 9.0111 5.625 10 5.625C10.1658 5.625 10.3247 5.69085 10.4419 5.80806C10.5592 5.92527 10.625 6.08424 10.625 6.25V10H14.375C14.5408 10 14.6997 10.0658 14.8169 10.1831C14.9342 10.3003 15 10.4592 15 10.625Z" fill="#1E87FD"/>
</svg>
