<svg width="18" height="18" viewBox="0 0 18 18" fill="none" xmlns="http://www.w3.org/2000/svg">
<path d="M16.3125 9.75C16.3109 11.4612 15.7098 13.1177 14.6137 14.4317C13.5175 15.7457 11.9956 16.6341 10.3125 16.9425C9.44481 17.1025 8.55519 17.1025 7.6875 16.9425C6.00436 16.6341 4.48248 15.7457 3.38635 14.4317C2.29021 13.1177 1.68911 11.4612 1.6875 9.75C1.72151 8.30353 2.10217 6.88634 2.7975 5.6175C2.84827 5.51993 2.92668 5.43948 3.02292 5.38622C3.11916 5.33297 3.22896 5.30926 3.3386 5.31806C3.44825 5.32686 3.55286 5.36779 3.63937 5.43572C3.72588 5.50365 3.79045 5.59557 3.825 5.7C4.23 6.9075 5.085 7.6875 6 7.6875C7.3425 7.6875 8.4375 6.09 8.4375 4.125C8.44789 3.32755 8.24876 2.54135 7.86 1.845C7.81579 1.76523 7.79075 1.67627 7.78684 1.58515C7.78294 1.49404 7.80028 1.40326 7.8375 1.32C7.87554 1.23797 7.93297 1.16642 8.00484 1.11154C8.0767 1.05666 8.16085 1.0201 8.25 1.005C8.49771 0.961857 8.74857 0.93928 9 0.9375C12.87 0.9375 16.3125 5.865 16.3125 9.75Z" fill="#7EE4F0"/>
<path d="M12 14.25C12.0004 14.8121 11.8423 15.3629 11.5438 15.8392C11.2453 16.3154 10.8186 16.6979 10.3125 16.9425C9.44482 17.1025 8.55519 17.1025 7.6875 16.9425C7.18145 16.6979 6.75466 16.3154 6.45616 15.8392C6.15766 15.3629 5.99956 14.8121 6 14.25C6 12.5925 9 9 9 9C9 9 12 12.5925 12 14.25Z" fill="white"/>
</svg>
