<svg width="16" height="16" viewBox="0 0 16 16" fill="none" xmlns="http://www.w3.org/2000/svg">
<path d="M14.5 8.66643C14.4986 10.1875 13.9643 11.6599 12.9899 12.8279C12.0156 13.9959 10.6628 14.7856 9.16667 15.0598C8.39539 15.202 7.60461 15.202 6.83333 15.0598C5.33721 14.7856 3.98443 13.9959 3.01009 12.8279C2.03574 11.6599 1.50143 10.1875 1.5 8.66643C1.53023 7.38068 1.86859 6.12096 2.48667 4.9931C2.5318 4.90637 2.60149 4.83486 2.68704 4.78752C2.77259 4.74018 2.87019 4.71911 2.96765 4.72693C3.06511 4.73476 3.1581 4.77113 3.23499 4.83152C3.31189 4.8919 3.36929 4.97361 3.4 5.06643C3.76 6.13977 4.52 6.8331 5.33333 6.8331C6.52667 6.8331 7.5 5.4131 7.5 3.66643C7.50924 2.95759 7.33223 2.25874 6.98667 1.63977C6.94737 1.56886 6.92511 1.48978 6.92164 1.40879C6.91817 1.3278 6.93358 1.24711 6.96667 1.1731C7.00048 1.10018 7.05153 1.03659 7.11541 0.987805C7.17929 0.939023 7.25409 0.906519 7.33333 0.893099C7.55352 0.85475 7.7765 0.834682 8 0.833099C11.44 0.833099 14.5 5.2131 14.5 8.66643Z" fill="#7165E3"/>
<path d="M10.6668 12.6667C10.6672 13.1663 10.5267 13.6559 10.2614 14.0793C9.99602 14.5026 9.61665 14.8425 9.16683 15.06C8.39555 15.2022 7.60477 15.2022 6.8335 15.06C6.38367 14.8425 6.00431 14.5026 5.73898 14.0793C5.47364 13.6559 5.3331 13.1663 5.3335 12.6667C5.3335 11.1933 8.00016 8 8.00016 8C8.00016 8 10.6668 11.1933 10.6668 12.6667Z" fill="white"/>
</svg>
