<svg width="281" height="222" viewBox="0 0 281 222" fill="none" xmlns="http://www.w3.org/2000/svg">
<g clip-path="url(#clip0_103_532)">
<path d="M26.0553 194.304L22.9941 217.182H29.1165L26.0553 194.304Z" fill="#3F3D56"/>
<path d="M22.8327 196.237L19.7715 219.115H25.8938L22.8327 196.237Z" fill="#3F3D56"/>
<path d="M18.9664 196.237L15.9053 219.115H22.0276L18.9664 196.237Z" fill="#3F3D56"/>
<path d="M210.37 187.214L207.309 210.093H213.431L210.37 187.214Z" fill="#3F3D56"/>
<path d="M214.559 187.214L211.498 210.093H217.62L214.559 187.214Z" fill="#3F3D56"/>
<path d="M217.781 192.048L214.72 214.926H220.842L217.781 192.048Z" fill="#3F3D56"/>
<path d="M221.97 192.048L218.909 214.926H225.032L221.97 192.048Z" fill="#3F3D56"/>
<path d="M240.014 195.592L236.953 218.471H243.075L240.014 195.592Z" fill="#3F3D56"/>
<path d="M244.203 195.592L241.142 218.471H247.264L244.203 195.592Z" fill="#3F3D56"/>
<path d="M250.014 219.76H244.839L245.013 218.471L246.102 210.331L246.137 210.051L247.426 200.426L248.838 210.979L249.521 216.08L250.014 219.76Z" fill="#3F3D56"/>
<path d="M254.202 219.76H249.027L249.52 216.08L250.162 211.298L251.615 200.426L253.168 212.039V212.042L253.622 215.435L254.202 219.76Z" fill="#3F3D56"/>
<path d="M258.561 219.759H253.045L253.622 215.435L254.047 212.261L255.803 199.137L257.685 213.192L257.898 214.791L258.561 219.759Z" fill="#3F3D56"/>
<path d="M262.751 219.759H257.234L257.898 214.791L258.098 213.299L259.993 199.137L261.926 213.595L262.029 214.349L262.751 219.759Z" fill="#3F3D56"/>
<path d="M265.328 219.76H261.101L261.832 214.298L261.925 213.595L263.214 203.97L264.7 215.084L265.309 219.624L265.328 219.76Z" fill="#3F3D56"/>
<path d="M269.518 219.76H265.29L265.309 219.624L265.873 215.409L267.404 203.97L269.057 216.315L269.518 219.76Z" fill="#3F3D56"/>
<path d="M30.889 61.5456C47.8843 61.5456 61.6618 47.7681 61.6618 30.7728C61.6618 13.7774 47.8843 0 30.889 0C13.8937 0 0.116211 13.7774 0.116211 30.7728C0.116211 47.7681 13.8937 61.5456 30.889 61.5456Z" fill="#FF6584"/>
<path d="M280.454 221.693H0.115234C0.115234 221.693 57.0336 199.823 140.868 200.071C141.338 200.071 141.809 200.075 142.279 200.078C143.951 200.087 145.633 200.106 147.325 200.133C148.649 200.155 149.979 200.183 151.314 200.216C151.891 200.229 152.468 200.245 153.048 200.261C153.28 200.268 153.509 200.274 153.737 200.281C154.269 200.297 154.804 200.313 155.342 200.332C156.351 200.365 157.363 200.403 158.378 200.442C159.267 200.477 160.16 200.516 161.058 200.558C161.4 200.571 161.748 200.587 162.093 200.606C163.72 200.68 165.354 200.766 166.994 200.864C167.374 200.887 167.754 200.909 168.138 200.932C168.663 200.961 169.191 200.996 169.717 201.028C170.413 201.073 171.109 201.12 171.805 201.167C172.71 201.228 173.612 201.293 174.518 201.36C176.413 201.499 178.318 201.651 180.234 201.818C181.658 201.937 183.086 202.069 184.52 202.205C185.129 202.263 185.74 202.323 186.353 202.385C187.291 202.475 188.231 202.571 189.173 202.672C189.772 202.736 190.375 202.801 190.974 202.865C191.699 202.942 192.421 203.023 193.146 203.107C193.868 203.191 194.596 203.274 195.321 203.361C196.049 203.448 196.777 203.536 197.506 203.626C198.237 203.716 198.965 203.806 199.697 203.903C200.419 203.993 201.14 204.09 201.865 204.186C204.952 204.595 208.062 205.041 211.194 205.523C211.793 205.614 212.399 205.707 213.002 205.804C213.624 205.9 214.248 206 214.874 206.103C215.744 206.242 216.617 206.386 217.493 206.535C218.244 206.661 218.995 206.787 219.749 206.919C220.429 207.035 221.115 207.154 221.798 207.276C221.869 207.289 221.94 207.302 222.011 207.315C222.765 207.447 223.522 207.586 224.276 207.724C225.034 207.863 225.794 208.005 226.551 208.146C227.312 208.288 228.072 208.433 228.833 208.581C229.596 208.73 230.357 208.878 231.12 209.029C231.717 209.149 232.31 209.268 232.906 209.387C233.202 209.448 233.499 209.506 233.795 209.567C234.433 209.7 235.073 209.833 235.715 209.967C236.482 210.128 237.25 210.29 238.019 210.454C238.106 210.473 238.19 210.492 238.277 210.508C239.469 210.766 240.663 211.028 241.857 211.295C242.018 211.33 242.183 211.369 242.347 211.404C242.972 211.543 243.597 211.684 244.222 211.829C244.847 211.974 245.473 212.116 246.101 212.264C246.127 212.268 246.153 212.274 246.178 212.281C247.064 212.487 247.947 212.696 248.837 212.912C249.278 213.015 249.719 213.122 250.161 213.231C250.767 213.376 251.369 213.524 251.975 213.676C252.371 213.776 252.768 213.876 253.167 213.976C253.461 214.043 253.754 214.117 254.047 214.195C254.666 214.346 255.285 214.503 255.906 214.665C256.483 214.813 257.06 214.963 257.637 215.113C257.653 215.116 257.669 215.12 257.685 215.126C257.824 215.161 257.959 215.197 258.097 215.232C258.52 215.342 258.942 215.455 259.367 215.567C259.802 215.683 260.24 215.799 260.678 215.919C261.062 216.022 261.449 216.125 261.832 216.231C261.843 216.231 261.854 216.234 261.864 216.238C261.919 216.25 261.974 216.267 262.029 216.283C262.473 216.402 262.918 216.521 263.363 216.647C263.807 216.769 264.252 216.892 264.7 217.017C264.745 217.027 264.79 217.04 264.835 217.053C265.18 217.146 265.525 217.243 265.87 217.343C265.87 217.343 265.87 217.34 265.873 217.343C266.069 217.394 266.266 217.452 266.462 217.507C266.988 217.655 267.513 217.805 268.038 217.955C268.376 218.052 268.718 218.148 269.056 218.248C270.001 218.522 270.948 218.796 271.895 219.076C272.843 219.357 273.793 219.64 274.741 219.927C275.311 220.098 275.878 220.272 276.448 220.449C276.983 220.61 277.518 220.775 278.053 220.942C278.852 221.19 279.654 221.438 280.454 221.693Z" fill="#E6E6E6"/>
<path d="M280.357 222C201.014 196.883 129.068 198.221 82.6845 203.767C32.434 209.775 0.547379 221.872 0.231287 221.994L0 221.392C0.317034 221.27 32.2787 209.144 82.6081 203.127C112.213 199.591 142.083 198.827 171.83 200.844C208.758 203.344 245.257 210.24 280.551 221.386L280.357 222Z" fill="#3F3D56"/>
<path d="M227.77 116.953C256.867 116.953 280.455 93.3653 280.455 64.2686C280.455 35.1718 256.867 11.5843 227.77 11.5843C198.673 11.5843 175.086 35.1718 175.086 64.2686C175.086 93.3653 198.673 116.953 227.77 116.953Z" fill="#6C63FF"/>
<path opacity="0.2" d="M266.959 29.0796C271.874 40.5749 272.54 53.4431 268.84 65.3847C265.14 77.3263 257.314 87.5632 246.762 94.2661C236.209 100.969 223.616 103.701 211.234 101.974C198.852 100.247 187.488 94.1737 179.172 84.8391C182.174 91.8623 186.667 98.1488 192.34 103.263C198.012 108.377 204.729 112.197 212.025 114.458C219.321 116.719 227.02 117.366 234.591 116.356C242.162 115.345 249.422 112.701 255.87 108.606C262.317 104.511 267.797 99.063 271.93 92.6398C276.062 86.2167 278.749 78.9718 279.804 71.4071C280.859 63.8425 280.257 56.1389 278.039 48.8302C275.821 41.5214 272.04 34.7823 266.959 29.0796Z" fill="black"/>
<path d="M227.914 64.2687H228.059L230.664 213.637H225.164L227.914 64.2687Z" fill="#3F3D56"/>
<path d="M237.508 145.629L236.294 143.324L227.585 147.909L228.799 150.214L237.508 145.629Z" fill="#3F3D56"/>
<path d="M136.127 92.6409L151.876 96.245L158.53 83.6949L145.063 78.4374L136.127 92.6409Z" fill="#2F2E41"/>
<path d="M144.494 160.2C144.494 160.2 139.432 171.802 139.432 175.177C139.432 175.177 141.436 184.352 140.803 186.884L138.588 191.63L133.947 189.731L132.682 177.075L132.893 156.825L144.494 160.2Z" fill="#FFB9B9"/>
<path d="M147.342 90.8017C147.342 90.8017 147.764 97.7627 146.92 99.872C146.077 101.981 150.084 105.989 150.084 105.989L156.413 97.7627C156.413 97.7627 152.194 93.5439 153.249 88.9033L147.342 90.8017Z" fill="#FFB9B9"/>
<path d="M135.109 107.466V118.645L134.159 139.001C134.159 139.001 128.042 150.391 133.948 149.548C139.855 148.704 137.851 138.684 137.851 138.684L139.855 118.751L139.749 106.622L135.109 107.466Z" fill="#FFB9B9"/>
<path d="M132.787 188.255L141.858 184.669L142.912 202.598C142.912 202.598 144.811 208.083 144.178 210.192C144.178 210.192 144.6 213.778 143.545 213.989C142.49 214.2 139.537 214.622 139.326 214.411C139.115 214.2 139.115 213.567 139.115 213.567C139.115 213.567 137.006 215.044 136.795 216.731C136.795 216.731 127.936 219.473 127.725 216.942C127.514 214.411 132.154 212.302 132.154 212.302L135.74 206.817L132.787 188.255Z" fill="#2F2E41"/>
<path d="M163.373 160.2C163.373 160.2 158.311 171.802 158.311 175.177C158.311 175.177 160.314 184.352 159.682 186.884L157.467 191.63L152.826 189.731L151.561 177.075L151.771 156.825L163.373 160.2Z" fill="#FFB9B9"/>
<path d="M151.983 188.255L161.053 184.669L162.108 202.598C162.108 202.598 164.006 208.083 163.373 210.192C163.373 210.192 163.795 213.778 162.74 213.989C161.686 214.2 158.733 214.622 158.522 214.411C158.311 214.2 158.311 213.567 158.311 213.567C158.311 213.567 156.201 215.044 155.99 216.731C155.99 216.731 147.131 219.473 146.92 216.942C146.709 214.411 151.35 212.302 151.35 212.302L154.936 206.817L151.983 188.255Z" fill="#2F2E41"/>
<path d="M149.451 92.7002C153.179 92.7002 156.201 89.6781 156.201 85.9502C156.201 82.2223 153.179 79.2002 149.451 79.2002C145.723 79.2002 142.701 82.2223 142.701 85.9502C142.701 89.6781 145.723 92.7002 149.451 92.7002Z" fill="#FFB9B9"/>
<path d="M150.296 99.4501L155.534 96.73L157.89 98.6064C157.89 98.6064 163.585 98.3955 165.694 100.927C167.804 103.458 168.964 109.892 168.964 109.892C168.964 109.892 162.003 108.415 162.847 114.321L161.581 110.946L160.421 113.794L146.288 118.645L139.96 107.888C139.96 107.888 135.741 106.622 134.265 109.575C134.265 109.575 134.581 98.9228 138.694 98.6064C141.461 98.3936 143.546 98.3955 143.546 98.3955L145.866 97.9736L147.352 97.4462L150.296 99.4501Z" fill="#6C63FF"/>
<path d="M161.865 98.7553C161.865 98.7553 158.638 107.771 162.376 111.837L159.26 122.548C159.26 122.548 170.334 155.77 167.17 160.411C167.17 160.411 155.357 166.317 131.732 158.302L141.33 121.071L139.959 105.356L141.857 97.9736L146.076 97.5517C146.076 97.5517 143.545 107.044 148.186 108.52C152.826 109.997 157.353 97.7886 157.353 97.7886L161.865 98.7553Z" fill="#2F2E41"/>
<path d="M162.002 107.466V118.645L161.053 139.001C161.053 139.001 154.936 150.392 160.842 149.548C166.748 148.704 164.744 138.684 164.744 138.684L166.221 118.645L166.643 106.622L162.002 107.466Z" fill="#FFB9B9"/>
<path d="M168.964 109.892C168.964 109.892 168.214 99.0587 161.944 99.0962V111.624C161.944 111.624 166.643 108.837 168.964 109.892Z" fill="#6C63FF"/>
<path d="M145.639 76.5024C145.639 76.5024 142.151 77.1587 141.344 81.5098C141.218 82.2436 141.195 82.9914 141.276 83.7315C141.356 84.5691 141.239 86.3381 139.421 88.4211C138.234 89.7721 137.128 91.1921 136.109 92.6737L139.755 93.6441L141.384 87.6043C142.173 84.676 143.39 81.88 144.994 79.3061L145.028 79.2524C145.028 79.2524 146.238 82.4875 149.484 82.931L148.483 81.6136C148.483 81.6136 152.277 83.8067 154.426 84.4766C154.671 84.5531 154.891 84.6951 155.062 84.8872C155.232 85.0794 155.347 85.3144 155.394 85.5671C155.441 85.8197 155.418 86.0803 155.328 86.3209C155.237 86.5614 155.083 86.7728 154.882 86.9322C154.866 86.9442 154.851 86.9562 154.835 86.9682C153.254 88.169 150.029 91.034 151.303 93.8056C152.577 96.5772 151.091 97.0825 151.091 97.0825L153.831 96.0402L155.085 95.5031L154.959 96.4303L161.081 96.5586C161.081 96.5586 162.735 96.5485 159.796 92.1327C159.796 92.1327 159.087 90.477 159.669 89.212C160.137 88.2541 160.369 87.1988 160.348 86.1332C160.163 81.6812 158.287 72.6241 145.639 76.5024Z" fill="#2F2E41"/>
<path d="M151.773 85.4781C151.931 84.3238 151.217 83.273 150.178 83.1311C149.139 82.9891 148.169 83.8097 148.011 84.964C147.853 86.1182 148.568 87.169 149.607 87.311C150.645 87.4529 151.615 86.6323 151.773 85.4781Z" fill="#2F2E41"/>
<path d="M146.965 84.8211C147.123 83.6669 146.409 82.6161 145.37 82.4741C144.331 82.3322 143.361 83.1528 143.204 84.307C143.046 85.4613 143.76 86.5121 144.799 86.654C145.838 86.796 146.808 85.9754 146.965 84.8211Z" fill="#2F2E41"/>
<path d="M155.865 84.6537L151.571 84.9193L151.611 85.5625L155.905 85.2969L155.865 84.6537Z" fill="#2F2E41"/>
<path d="M146.382 84.4166L146.295 85.0551L148.385 85.3408L148.472 84.7023L146.382 84.4166Z" fill="#2F2E41"/>
<path d="M101.989 214.902C101.989 214.902 102.212 210.239 106.773 210.781L101.989 214.902Z" fill="#3F3D56"/>
<path d="M100.7 210.465C101.961 210.465 102.983 209.442 102.983 208.181C102.983 206.921 101.961 205.898 100.7 205.898C99.4391 205.898 98.417 206.921 98.417 208.181C98.417 209.442 99.4391 210.465 100.7 210.465Z" fill="#6C63FF"/>
<path d="M100.974 212.026H100.329V216.537H100.974V212.026Z" fill="#3F3D56"/>
<path d="M185.124 215.868C185.124 215.868 185.347 211.206 189.908 211.748L185.124 215.868Z" fill="#3F3D56"/>
<path d="M183.835 211.431C185.096 211.431 186.118 210.409 186.118 209.148C186.118 207.887 185.096 206.865 183.835 206.865C182.574 206.865 181.552 207.887 181.552 209.148C181.552 210.409 182.574 211.431 183.835 211.431Z" fill="#6C63FF"/>
<path d="M184.108 212.993H183.464V217.504H184.108V212.993Z" fill="#3F3D56"/>
<path d="M48.1768 207.813C48.1768 207.813 48.3993 203.15 52.9609 203.692L48.1768 207.813Z" fill="#3F3D56"/>
<path d="M46.8876 203.376C48.1485 203.376 49.1706 202.353 49.1706 201.092C49.1706 199.832 48.1485 198.809 46.8876 198.809C45.6267 198.809 44.6045 199.832 44.6045 201.092C44.6045 202.353 45.6267 203.376 46.8876 203.376Z" fill="#6C63FF"/>
<path d="M47.1611 204.937H46.5166V209.448H47.1611V204.937Z" fill="#3F3D56"/>
<path d="M83.2998 201.69C83.2998 201.69 83.5223 197.028 88.084 197.57L83.2998 201.69Z" fill="#3F3D56"/>
<path d="M82.0106 197.253C83.2715 197.253 84.2937 196.231 84.2937 194.97C84.2937 193.709 83.2715 192.687 82.0106 192.687C80.7497 192.687 79.7275 193.709 79.7275 194.97C79.7275 196.231 80.7497 197.253 82.0106 197.253Z" fill="#6C63FF"/>
<path d="M82.2841 198.815H81.6396V203.326H82.2841V198.815Z" fill="#3F3D56"/>
<path d="M171.268 210.39C171.268 210.39 171.49 205.728 176.052 206.27L171.268 210.39Z" fill="#3F3D56"/>
<path d="M169.979 205.953C171.24 205.953 172.262 204.931 172.262 203.67C172.262 202.409 171.24 201.387 169.979 201.387C168.718 201.387 167.696 202.409 167.696 203.67C167.696 204.931 168.718 205.953 169.979 205.953Z" fill="#6C63FF"/>
<path d="M170.252 207.515H169.607V212.026H170.252V207.515Z" fill="#3F3D56"/>
<path d="M107.352 12.717L110.318 10.3445C108.013 10.0903 107.067 11.347 106.679 12.3418C104.879 11.5942 102.919 12.5739 102.919 12.5739L108.854 14.7286C108.555 13.9289 108.033 13.2311 107.352 12.717Z" fill="#3F3D56"/>
<path d="M152.463 36.8841L155.429 34.5116C153.125 34.2574 152.178 35.5142 151.79 36.5089C149.99 35.7613 148.03 36.7411 148.03 36.7411L153.965 38.8957C153.666 38.096 153.145 37.3982 152.463 36.8841Z" fill="#3F3D56"/>
<path d="M103.807 57.5067L106.773 55.1342C104.469 54.88 103.522 56.1368 103.134 57.1315C101.334 56.384 99.374 57.3637 99.374 57.3637L105.309 59.5183C105.01 58.7186 104.488 58.0208 103.807 57.5067Z" fill="#3F3D56"/>
</g>
<defs>
<clipPath id="clip0_103_532">
<rect width="280.551" height="222" fill="white"/>
</clipPath>
</defs>
</svg>
