<svg width="48" height="72" viewBox="0 0 48 72" fill="none" xmlns="http://www.w3.org/2000/svg">
<path d="M24.0001 0C21.544 0 0 0.1784 0 6.34481C0 6.36321 0.00560001 6.38001 0.00560001 6.39841C0.00560001 6.41921 0 6.43841 0 6.46001C0.000800002 6.80401 0.182401 41.1617 5.43681 64.5953C5.58039 65.2512 5.8897 65.8594 6.33521 66.3617C7.81602 68.0081 12.3128 71.8537 22.0496 71.9977C22.3312 72.0017 25.8801 72.0009 26.2817 71.9913C35.8177 71.7641 40.2257 67.9689 41.6785 66.3457C42.1171 65.8472 42.4214 65.245 42.5625 64.5961C47.8185 41.1625 47.9993 6.80401 48.0001 6.46001C48.0001 6.43841 47.9953 6.41921 47.9945 6.39841C47.9945 6.38001 48.0001 6.36321 48.0001 6.34481C48.0001 0.1784 26.4561 0 24.0001 0ZM41.0801 55.2705C41.0263 55.3478 40.9794 55.4297 40.9401 55.5153C39.9569 57.7097 32.9097 60.8961 24.1025 60.8961C15.3808 60.8961 8.15682 57.7481 7.01602 55.5817C6.99842 55.5481 6.97362 55.5209 6.95441 55.4889C5.26458 44.3767 4.17154 33.182 3.68001 21.9528C6.49938 20.9909 9.48816 20.6267 12.456 20.8832C16.1584 21.2112 19.6264 22.5208 23.2985 23.9088C27.5929 25.5304 32.0161 27.2017 36.8921 27.2017C37.5353 27.2017 38.1867 27.1713 38.8465 27.1105C40.6631 26.957 42.4421 26.5057 44.1121 25.7744C43.5921 34.6633 42.6785 45.3985 41.0801 55.2705ZM44.3161 22.0168C42.5825 23.1242 40.5993 23.7799 38.5473 23.924C33.6209 24.3888 29.1577 22.7 24.4305 20.9144C20.7176 19.512 16.8784 18.0624 12.7376 17.696C9.63609 17.43 6.5122 17.7511 3.52961 18.6424C3.37761 15.016 3.29521 11.996 3.25121 9.86642C9.36562 12.5864 22.1416 12.6904 24.0001 12.6904C25.8585 12.6904 38.6345 12.5864 44.7489 9.86642C44.6921 12.6264 44.5705 16.8888 44.3161 22.0168ZM24.0001 3.20001C36.2937 3.20001 43.2593 5.16401 44.6481 6.34401C43.2601 7.52481 36.2945 9.48962 24.0001 9.48962C11.7056 9.48962 4.74001 7.52561 3.35201 6.34481C4.74081 5.16481 11.7064 3.20001 24.0001 3.20001ZM39.2937 64.2113C38.3777 65.2345 34.7257 68.5881 26.2057 68.7913C25.5433 68.8065 22.7352 68.8073 22.0984 68.7969C13.3832 68.6681 9.65042 65.2609 8.71442 64.2201C8.63621 64.1264 8.58309 64.0144 8.56002 63.8945C8.29822 62.722 8.05287 61.5459 7.82402 60.3665C11.7224 62.5825 17.908 64.0961 24.1025 64.0961C30.2865 64.0961 36.3545 62.5865 40.1769 60.3617C39.9425 61.5625 39.6985 62.7441 39.4401 63.8961C39.4176 64.0115 39.3674 64.1197 39.2937 64.2113Z" fill="white"/>
<path d="M28.8004 44.344C27.8511 44.344 26.923 44.6255 26.1337 45.153C25.3443 45.6804 24.7291 46.4301 24.3658 47.3071C24.0025 48.1842 23.9074 49.1494 24.0926 50.0805C24.2779 51.0116 24.735 51.8669 25.4063 52.5382C26.0776 53.2094 26.9329 53.6666 27.864 53.8518C28.7951 54.037 29.7602 53.942 30.6373 53.5787C31.5144 53.2154 32.2641 52.6001 32.7915 51.8108C33.3189 51.0214 33.6004 50.0934 33.6004 49.144C33.599 47.8715 33.0928 46.6514 32.1929 45.7516C31.2931 44.8517 30.073 44.3455 28.8004 44.344ZM28.8004 50.744C28.484 50.744 28.1746 50.6502 27.9115 50.4744C27.6484 50.2986 27.4433 50.0487 27.3222 49.7563C27.2011 49.464 27.1694 49.1423 27.2312 48.8319C27.2929 48.5215 27.4453 48.2364 27.669 48.0127C27.8928 47.7889 28.1779 47.6365 28.4883 47.5748C28.7986 47.513 29.1204 47.5447 29.4127 47.6658C29.7051 47.7869 29.955 47.992 30.1308 48.2551C30.3066 48.5182 30.4004 48.8276 30.4004 49.144C30.4 49.5683 30.2313 49.975 29.9313 50.2749C29.6314 50.5749 29.2246 50.7436 28.8004 50.744ZM19.2004 36.0024C18.2511 36.0024 17.323 36.2839 16.5337 36.8114C15.7443 37.3388 15.1291 38.0885 14.7658 38.9655C14.4025 39.8426 14.3074 40.8077 14.4926 41.7389C14.6778 42.67 15.135 43.5252 15.8063 44.1965C16.4776 44.8678 17.3329 45.325 18.264 45.5102C19.1951 45.6954 20.1602 45.6004 21.0373 45.2371C21.9144 44.8738 22.664 44.2585 23.1915 43.4692C23.7189 42.6798 24.0004 41.7518 24.0004 40.8024C23.9989 39.5298 23.4927 38.3098 22.5929 37.4099C21.693 36.5101 20.473 36.0039 19.2004 36.0024ZM19.2004 42.4024C18.884 42.4024 18.5746 42.3086 18.3115 42.1328C18.0484 41.957 17.8433 41.7071 17.7222 41.4147C17.6011 41.1224 17.5694 40.8006 17.6311 40.4903C17.6929 40.1799 17.8453 39.8948 18.069 39.671C18.2928 39.4473 18.5779 39.2949 18.8883 39.2332C19.1986 39.1714 19.5203 39.2031 19.8127 39.3242C20.1051 39.4453 20.3549 39.6504 20.5308 39.9135C20.7066 40.1766 20.8004 40.486 20.8004 40.8024C20.8 41.2266 20.6313 41.6334 20.3313 41.9333C20.0313 42.2333 19.6246 42.402 19.2004 42.4024Z" fill="white"/>
<path d="M30.3998 40.0024C31.2835 40.0024 31.9998 39.2861 31.9998 38.4024C31.9998 37.5188 31.2835 36.8024 30.3998 36.8024C29.5162 36.8024 28.7998 37.5188 28.7998 38.4024C28.7998 39.2861 29.5162 40.0024 30.3998 40.0024Z" fill="white"/>
<path d="M17.6 52.8032C18.4837 52.8032 19.2 52.0869 19.2 51.2032C19.2 50.3196 18.4837 49.6032 17.6 49.6032C16.7163 49.6032 16 50.3196 16 51.2032C16 52.0869 16.7163 52.8032 17.6 52.8032Z" fill="white"/>
<path d="M12.8002 34.4024C13.6839 34.4024 14.4002 33.6861 14.4002 32.8024C14.4002 31.9187 13.6839 31.2024 12.8002 31.2024C11.9165 31.2024 11.2002 31.9187 11.2002 32.8024C11.2002 33.6861 11.9165 34.4024 12.8002 34.4024Z" fill="white"/>
</svg>
