<svg width="25" height="25" viewBox="0 0 25 25" fill="none" xmlns="http://www.w3.org/2000/svg">
<path fill-rule="evenodd" clip-rule="evenodd" d="M20.6051 19.611C20.5462 20.6708 19.6696 21.5 18.6082 21.5H6.39212C5.33063 21.5 4.45406 20.6707 4.39518 19.611L3.6174 5.61095C3.55371 4.46453 4.46615 3.5 5.61432 3.5H19.3859C20.5341 3.5 21.4465 4.46454 21.3829 5.61095L20.6051 19.611ZM17.6222 9.3893C18.0321 9.11925 18.1352 8.58385 17.7988 8.2355C17.2366 7.6533 16.5696 7.16525 15.8263 6.79475C14.8153 6.29085 13.6915 6.01885 12.5471 6.00095C11.4026 5.98305 10.2699 6.2198 9.24152 6.69185C8.48547 7.0389 7.80162 7.50585 7.21907 8.07015C6.87047 8.4078 6.95457 8.9461 7.35472 9.22885L9.51067 10.7521C9.91082 11.0348 10.4745 10.9434 10.8891 10.6797C10.9952 10.6122 11.1066 10.5516 11.2224 10.4985C11.588 10.3306 11.9884 10.2414 12.3947 10.2371L14.0912 8.28645C14.2724 8.0781 14.5882 8.0561 14.7966 8.2373C15.0049 8.4185 15.0269 8.73435 14.8457 8.9427L13.5305 10.4549C13.5919 10.4802 13.6523 10.5077 13.7117 10.5373C13.8256 10.5941 13.9347 10.6581 14.0384 10.7289C14.4435 11.0054 15.0035 11.1144 15.4135 10.8443L17.6222 9.3893Z" fill="white"/>
</svg>
